# xmcd
#
# Track frame offsets:
# 225
# 12023
# 30822
# 52305
# 77113
# 91906
# 111325
# 134495
# 152701
# 174124
# 194798
#
# Disc length: 3033 seconds
#
#
# Revision: 3
# Processed by: cddbd v1.5.2PL0 Copyright (c) Steve Scherf et al.
# Submitted via: FreeRIP 2.96 
#
DISCID=890bd60b
DTITLE=Piper, Anni [AUS] - Chasin' Tail
DYEAR=2010
DGENRE=Blues
TTITLE0=Amazon [from 'Chasin' Tail', Jan 2010] [FLVox]
TTITLE1=Chasin' Tail [from 'Chasin' Tail', Jan 2010] [FLVox]
TTITLE2=The Whistleblower [from 'Chasin' Tail', Jan 2010] [FLVox]
TTITLE3=Chi Sau [from 'Chasin' Tail', Jan 2010] [FLVox]
TTITLE4=Dreamcatcher [from 'Chasin' Tail', Jan 2010] [FLVox]
TTITLE5=Highway Time [from 'Chasin' Tail', Jan 2010] [FLVox]
TTITLE6=If You Be My Baby [from 'Chasin' Tail', Jan 2010] [FLVox]
TTITLE7=Bleeding Heart Tattoo [from 'Chasin' Tail', Jan 2010] [FLVox]
TTITLE8=Hide Away [from 'Chasin' Tail', Jan 2010] [FLVox]
TTITLE9=Great Big Baby [from 'Chasin' Tail', Jan 2010] [FLVox]
TTITLE10=Voodoo Child (Slight Return) [The Jimi Hendrix Experience cover, 1968] [from 'Chasin' Tail', Jan 2010] [FLVox]
EXTD=
EXTT0=
EXTT1=
EXTT2=
EXTT3=
EXTT4=
EXTT5=
EXTT6=
EXTT7=
EXTT8=
EXTT9=
EXTT10=
PLAYORDER=
